<svg width="25" height="23" viewBox="0 0 25 23" fill="none" xmlns="http://www.w3.org/2000/svg">
<path d="M12.4054 12.15V11.3C12.4054 10.9 12.6554 10.65 13.1654 10.3C13.8654 9.86004 14.3754 9.46004 14.3954 8.61004C14.3954 7.41004 13.3954 6.74004 12.1854 6.71004C11.7227 6.63647 11.2487 6.71456 10.8342 6.93265C10.4196 7.15075 10.0868 7.49713 9.88536 7.92004C9.84348 8.03615 9.81659 8.15713 9.80536 8.28004" stroke="#B7BEC5" stroke-width="2" stroke-miterlimit="10" stroke-linecap="round"/>
<path d="M12.4053 15.9C12.9189 15.9 13.3353 15.4837 13.3353 14.97C13.3353 14.4564 12.9189 14.04 12.4053 14.04C11.8917 14.04 11.4753 14.4564 11.4753 14.97C11.4753 15.4837 11.8917 15.9 12.4053 15.9Z" fill="#B7BEC5"/>
<path d="M21.405 10.5C21.405 5.52944 17.3755 1.5 12.405 1.5C7.43441 1.5 3.40497 5.52944 3.40497 10.5C3.40497 15.4706 7.43441 19.5 12.405 19.5C17.3755 19.5 21.405 15.4706 21.405 10.5Z" stroke="#B7BEC5" stroke-width="2" stroke-miterlimit="10" stroke-linecap="round"/>
</svg>
