<svg width="16" height="16" viewBox="0 0 16 16" fill="none"
    xmlns="http://www.w3.org/2000/svg">
    <g clip-path="url(#clip0_21_37)">
        <path d="M7.80618 12C7.66894 12.005 7.53226 11.9808 7.4061 11.9294C7.27995 11.8779 7.1675 11.8004 7.07695 11.7025L2.19388 6.45249C2.04468 6.27691 1.97274 6.0535 1.99306 5.82887C2.01338 5.60423 2.1244 5.3957 2.30295 5.24675C2.48151 5.09781 2.71383 5.01994 2.95147 5.0294C3.18911 5.03885 3.41373 5.13489 3.57849 5.29749L7.83388 9.81249L12.4493 5.25374C12.6225 5.10608 12.8482 5.02596 13.0811 5.02945C13.3141 5.03295 13.537 5.11981 13.7052 5.27261C13.8734 5.4254 13.9744 5.63283 13.988 5.85328C14.0016 6.07374 13.9268 6.29091 13.7785 6.46124L8.50772 11.7112C8.41935 11.8041 8.311 11.8779 8.18999 11.9277C8.06897 11.9775 7.9381 12.0022 7.80618 12Z" fill="currentColor"/>
    </g>
    <defs>
        <clipPath id="clip0_21_37">
            <rect width="12" height="7" fill="white" transform="translate(2 5)"/>
        </clipPath>
    </defs>
</svg>
