<svg width="9" height="10" viewBox="0 0 9 10" fill="none" xmlns="http://www.w3.org/2000/svg">
<path d="M8.08514 9.10243C7.99262 9.19603 7.88253 9.27044 7.76119 9.3214C7.63985 9.37237 7.50965 9.39888 7.37804 9.39941C7.11385 9.39863 6.86071 9.29333 6.67391 9.10652C6.4871 8.91972 6.3818 8.66658 6.38102 8.40239L6.38102 3.04252L1.19085 3.02838C1.05884 3.02892 0.92803 3.00332 0.805964 2.95305C0.683897 2.90278 0.572992 2.82884 0.479646 2.73549C0.386299 2.64215 0.312359 2.53124 0.262091 2.40918C0.211822 2.28711 0.18622 2.1563 0.186761 2.02429C0.187547 1.7601 0.292842 1.50696 0.479649 1.32016C0.666457 1.13335 0.919597 1.02805 1.18378 1.02727L7.40632 1.02727C7.6705 1.02805 7.92365 1.13335 8.11045 1.32016C8.29726 1.50696 8.40256 1.7601 8.40334 2.02429L8.39627 8.38118C8.39578 8.51618 8.36796 8.64967 8.31449 8.77363C8.26102 8.89759 8.183 9.00943 8.08514 9.10243Z" fill="currentColor"/>
<path d="M7.15892 3.74885L2.28569 8.62208C2.18095 8.72682 2.00601 8.75277 1.79934 8.69422C1.59267 8.63568 1.37121 8.49743 1.18367 8.30989C0.996133 8.12235 0.857885 7.90089 0.799338 7.69422C0.74079 7.48755 0.766738 7.31261 0.871476 7.20787L5.74471 2.33464C5.84945 2.2299 6.02439 2.20395 6.23106 2.2625C6.43773 2.32104 6.65919 2.45929 6.84673 2.64683C7.03427 2.83436 7.17252 3.05583 7.23106 3.2625C7.28961 3.46917 7.26366 3.64411 7.15892 3.74885Z" fill="currentColor"/>
</svg>
