<svg width="16" height="16" viewBox="0 0 16 16" fill="none"
    xmlns="http://www.w3.org/2000/svg">
    <g clip-path="url(#clip0_2349_9316)">
        <path d="M7.70954 4.00489C7.85822 3.99922 8.00629 4.0268 8.14295 4.08562C8.27962 4.14444 8.40144 4.23302 8.49954 4.34489L13.7895 10.3449C13.9512 10.5456 14.0291 10.8009 14.0071 11.0576C13.9851 11.3143 13.8648 11.5527 13.6714 11.7229C13.4779 11.8931 13.2263 11.9821 12.9688 11.9713C12.7114 11.9605 12.468 11.8507 12.2895 11.6649L7.67954 6.50489L2.67954 11.7149C2.49188 11.8837 2.24736 11.9752 1.99501 11.9712C1.74266 11.9672 1.50116 11.868 1.31894 11.6933C1.13673 11.5187 1.02728 11.2817 1.01255 11.0297C0.997826 10.7778 1.07891 10.5296 1.23954 10.3349L6.94954 4.33489C7.04527 4.22877 7.16265 4.1444 7.29375 4.08748C7.42485 4.03055 7.56663 4.00239 7.70954 4.00489Z" fill="currentColor"/>
    </g>
    <defs>
        <clipPath id="clip0_2349_9316">
            <rect width="16" height="16" fill="white"/>
        </clipPath>
    </defs>
</svg>
