<svg width="9" height="10" viewBox="0 0 9 10" fill="none" xmlns="http://www.w3.org/2000/svg">
<path d="M0.914858 0.907338C1.00738 0.81374 1.11747 0.739326 1.23881 0.688362C1.36015 0.637399 1.49036 0.610888 1.62196 0.610352C1.88615 0.611138 2.13929 0.716434 2.3261 0.903241C2.5129 1.09005 2.6182 1.34319 2.61898 1.60737L2.61898 6.96724L7.80915 6.98139C7.94116 6.98085 8.07197 7.00645 8.19404 7.05672C8.3161 7.10698 8.42701 7.18092 8.52035 7.27427C8.6137 7.36762 8.68764 7.47852 8.73791 7.60059C8.78818 7.72266 8.81378 7.85347 8.81324 7.98548C8.81245 8.24966 8.70716 8.5028 8.52035 8.68961C8.33354 8.87642 8.0804 8.98171 7.81622 8.9825L1.59368 8.9825C1.3295 8.98171 1.07635 8.87642 0.889547 8.68961C0.702739 8.5028 0.597444 8.24966 0.596658 7.98548L0.603729 1.62859C0.60422 1.49359 0.632042 1.36009 0.685513 1.23614C0.738984 1.11218 0.816999 1.00033 0.914858 0.907338Z" fill="currentColor"/>
<path d="M1.89005 6.21195L7.36885 0.733143C7.4866 0.61539 7.67403 0.576958 7.8899 0.626303C8.10577 0.675647 8.33241 0.808726 8.51994 0.996262C8.70748 1.1838 8.84056 1.41043 8.8899 1.6263C8.93925 1.84217 8.90082 2.0296 8.78306 2.14736L3.30426 7.62616C3.18651 7.74391 2.99908 7.78234 2.78321 7.733C2.56733 7.68365 2.3407 7.55058 2.15317 7.36304C1.96563 7.1755 1.83255 6.94887 1.78321 6.733C1.73386 6.51713 1.77229 6.3297 1.89005 6.21195Z" fill="currentColor"/>
</svg>
