<svg width="28" height="29" viewBox="0 0 28 29" fill="none" xmlns="http://www.w3.org/2000/svg">
<path d="M17.8864 23.0049H10.1136C7.86058 23.0049 6.06187 21.1405 6.40716 18.9141C7.00567 15.055 8.46667 9.75176 12 9.00488H16C19.5333 9.75176 20.9943 15.055 21.5928 18.9141C21.9381 21.1405 20.1394 23.0049 17.8864 23.0049Z" stroke="#666C72" stroke-width="2" stroke-linecap="round" stroke-linejoin="round"/>
<path d="M13 9.00488C12 8.15746 11 6.2935 11 5.61565C11 4.93781 12.3333 5.05078 13 5.192C13.3333 5.05079 14.2 4.8531 15 5.19203C15.8333 5.05084 17 5.01659 17 5.61565C17 6.46285 15.8 8.32692 15 9.00477" stroke="#666C72" stroke-width="2" stroke-linecap="round" stroke-linejoin="round"/>
<path d="M12 15.0049H16" stroke="#666C72" stroke-width="1.62601" stroke-miterlimit="10" stroke-linecap="round"/>
<path d="M12 17.0049H14.0098H16" stroke="#666C72" stroke-width="1.62601" stroke-miterlimit="10" stroke-linecap="round"/>
<path d="M14 20.0049V17.0049" stroke="#666C72" stroke-width="1.62601" stroke-miterlimit="10" stroke-linecap="round"/>
</svg>
