<svg width="24" height="25" viewBox="0 0 24 25" fill="none" xmlns="http://www.w3.org/2000/svg">
<g clip-path="url(#clip0_2349_11490)">
<path d="M19.7002 7.13477C19.4349 7.13477 19.1806 7.02941 18.993 6.84187C18.8055 6.65434 18.7002 6.39998 18.7002 6.13477V4.80477C18.6563 4.07246 18.3247 3.38718 17.7778 2.89829C17.2308 2.40939 16.5128 2.15651 15.7802 2.19477H8.57016C7.83922 2.15923 7.12375 2.41333 6.57897 2.90195C6.03419 3.39057 5.70404 4.07428 5.66016 4.80477V6.13477C5.66016 6.39998 5.5548 6.65434 5.36726 6.84187C5.17973 7.02941 4.92537 7.13477 4.66016 7.13477C4.39494 7.13477 4.14059 7.02941 3.95305 6.84187C3.76551 6.65434 3.66016 6.39998 3.66016 6.13477V4.80477C3.70194 3.54302 4.2422 2.34929 5.16255 1.48517C6.08291 0.621054 7.30828 0.157023 8.57016 0.194767H15.7802C17.043 0.156984 18.2695 0.620704 19.1914 1.48456C20.1133 2.34841 20.6558 3.54213 20.7002 4.80477V6.13477C20.7002 6.39998 20.5948 6.65434 20.4073 6.84187C20.2197 7.02941 19.9654 7.13477 19.7002 7.13477Z" fill="#EF5630"/>
<path d="M15.7796 23.8149H8.56963C7.45459 23.8407 6.36488 23.4806 5.48478 22.7954C4.60468 22.1103 3.98821 21.1422 3.73963 20.0549C3.68972 19.7951 3.74484 19.526 3.89292 19.3067C4.04099 19.0874 4.26995 18.9358 4.52963 18.8849C4.78806 18.8348 5.05584 18.8886 5.27488 19.0346C5.49392 19.1806 5.64654 19.4071 5.69963 19.665C5.8578 20.2987 6.2296 20.8586 6.75238 21.2502C7.27516 21.6418 7.91696 21.8413 8.56963 21.815H15.7796C16.4372 21.8437 17.0842 21.6414 17.6083 21.2433C18.1325 20.8451 18.5009 20.2762 18.6496 19.6349C18.6987 19.3697 18.8511 19.1349 19.0733 18.982C19.2956 18.8292 19.5694 18.7709 19.8346 18.82C20.0998 18.869 20.3347 19.0214 20.4876 19.2437C20.6404 19.4659 20.6987 19.7397 20.6496 20.005C20.4116 21.1093 19.794 22.0953 18.9042 22.7914C18.0144 23.4875 16.9088 23.8497 15.7796 23.8149Z" fill="#EF5630"/>
<path d="M3.12988 17.005C2.86467 17.005 2.61031 16.8996 2.42278 16.7121C2.23524 16.5246 2.12988 16.2702 2.12988 16.005V10.005C2.12988 9.73978 2.23524 9.48543 2.42278 9.29789C2.61031 9.11036 2.86467 9.005 3.12988 9.005H5.31988C5.6876 8.98259 6.05602 9.03567 6.40246 9.16097C6.7489 9.28628 7.06603 9.48115 7.33433 9.7336C7.60264 9.98605 7.81644 10.2907 7.96259 10.6289C8.10873 10.9671 8.18412 11.3316 8.18412 11.7C8.18412 12.0684 8.10873 12.4329 7.96259 12.7711C7.81644 13.1093 7.60264 13.4139 7.33433 13.6664C7.06603 13.9189 6.7489 14.1137 6.40246 14.239C6.05602 14.3643 5.6876 14.4174 5.31988 14.395H4.12988V16.005C4.12988 16.2702 4.02453 16.5246 3.83699 16.7121C3.64945 16.8996 3.3951 17.005 3.12988 17.005ZM4.12988 12.445H5.31988C5.41815 12.4568 5.51781 12.4476 5.61227 12.4181C5.70674 12.3886 5.79387 12.3393 5.86791 12.2737C5.94195 12.208 6.00122 12.1274 6.04182 12.0371C6.08241 11.9468 6.1034 11.849 6.1034 11.75C6.1034 11.651 6.08241 11.5532 6.04182 11.4629C6.00122 11.3726 5.94195 11.292 5.86791 11.2263C5.79387 11.1607 5.70674 11.1114 5.61227 11.0819C5.51781 11.0524 5.41815 11.0432 5.31988 11.055H4.12988V12.445Z" fill="#EF5630"/>
<path d="M11.2803 17.0049H10.2803C10.0151 17.0049 9.7607 16.8995 9.57317 16.712C9.38563 16.5245 9.28027 16.2701 9.28027 16.0049V10.0049C9.28027 9.73967 9.38563 9.48531 9.57317 9.29778C9.7607 9.11024 10.0151 9.00488 10.2803 9.00488H11.2803C12.0285 9.01019 12.7589 9.23338 13.3823 9.64718C14.0056 10.061 14.4949 10.6475 14.7903 11.3349C15.0129 11.8477 15.1278 12.4008 15.1278 12.9599C15.1278 13.519 15.0129 14.0721 14.7903 14.5849C14.5076 15.2884 14.0239 15.8931 13.3997 16.3234C12.7755 16.7538 12.0383 16.9908 11.2803 17.0049ZM11.2803 15.0049C11.6544 15.0011 12.0187 14.8845 12.3255 14.6704C12.6324 14.4563 12.8675 14.1547 13.0003 13.8049C13.1089 13.5469 13.1649 13.2698 13.1649 12.9899C13.1649 12.71 13.1089 12.4329 13.0003 12.1749C12.861 11.8299 12.622 11.5343 12.3138 11.3259C12.0057 11.1174 11.6423 11.0057 11.2703 11.0049L11.2803 15.0049Z" fill="#EF5630"/>
<path d="M17.4199 17.0049C17.1547 17.0049 16.9004 16.8995 16.7128 16.712C16.5253 16.5245 16.4199 16.2701 16.4199 16.0049V10.0049C16.4199 9.73967 16.5253 9.48531 16.7128 9.29778C16.9004 9.11024 17.1547 9.00488 17.4199 9.00488H21.2299C21.4951 9.00488 21.7495 9.11024 21.937 9.29778C22.1246 9.48531 22.2299 9.73967 22.2299 10.0049C22.2299 10.2701 22.1246 10.5245 21.937 10.712C21.7495 10.8995 21.4951 11.0049 21.2299 11.0049H18.4199V16.0049C18.4199 16.2701 18.3146 16.5245 18.127 16.712C17.9395 16.8995 17.6851 17.0049 17.4199 17.0049Z" fill="#EF5630"/>
<path d="M20.3299 14.395H17.4199C17.1547 14.395 16.9004 14.2897 16.7128 14.1021C16.5253 13.9146 16.4199 13.6602 16.4199 13.395C16.4199 13.1298 16.5253 12.8754 16.7128 12.6879C16.9004 12.5004 17.1547 12.395 17.4199 12.395H20.3299C20.5951 12.395 20.8495 12.5004 21.037 12.6879C21.2246 12.8754 21.3299 13.1298 21.3299 13.395C21.3299 13.6602 21.2246 13.9146 21.037 14.1021C20.8495 14.2897 20.5951 14.395 20.3299 14.395Z" fill="#EF5630"/>
</g>
<defs>
<clipPath id="clip0_2349_11490">
<rect width="24" height="24" fill="white" transform="translate(0 0.00488281)"/>
</clipPath>
</defs>
</svg>
