<svg width="24" height="24" viewBox="0 0 24 24" fill="none" xmlns="http://www.w3.org/2000/svg">
<path d="M12.0004 13.65V12.8C12.0004 12.4 12.2504 12.15 12.7604 11.8C13.4604 11.36 13.9704 10.96 13.9904 10.11C13.9904 8.90998 12.9904 8.23998 11.7804 8.20998C11.3178 8.13641 10.8438 8.2145 10.4292 8.43259C10.0147 8.65069 9.68181 8.99707 9.48039 9.41998C9.43851 9.53609 9.41163 9.65707 9.40039 9.77998" stroke="currentColor" stroke-width="2" stroke-miterlimit="10" stroke-linecap="round"/>
<path d="M12.0003 17.4C12.5139 17.4 12.9303 16.9836 12.9303 16.47C12.9303 15.9564 12.5139 15.54 12.0003 15.54C11.4867 15.54 11.0703 15.9564 11.0703 16.47C11.0703 16.9836 11.4867 17.4 12.0003 17.4Z" fill="currentColor"/>
<path d="M21 12C21 7.02944 16.9706 3 12 3C7.02944 3 3 7.02944 3 12C3 16.9706 7.02944 21 12 21C16.9706 21 21 16.9706 21 12Z" stroke="currentColor" stroke-width="2" stroke-miterlimit="10" stroke-linecap="round"/>
</svg>
