<svg width="16" height="16" viewBox="0 0 16 16" fill="none" xmlns="http://www.w3.org/2000/svg">
<path fill-rule="evenodd" clip-rule="evenodd" d="M6.7831 2.50153C7.16761 1.83283 8.13241 1.83282 8.51692 2.50153L13.8321 11.7453C14.2154 12.412 13.7342 13.2438 12.9652 13.2438H2.33486C1.56584 13.2438 1.08462 12.412 1.46795 11.7453L6.7831 2.50153ZM6.63653 10.8303C6.63653 10.278 7.08424 9.83029 7.63653 9.83029C8.18881 9.83029 8.63653 10.278 8.63653 10.8303C8.63653 11.3826 8.18881 11.8303 7.63653 11.8303C7.08424 11.8303 6.63653 11.3826 6.63653 10.8303ZM7.63653 4.83025C7.08424 4.83025 6.63653 5.27797 6.63653 5.83025V8.16358C6.63653 8.71587 7.08424 9.16358 7.63653 9.16358C8.18881 9.16358 8.63653 8.71587 8.63653 8.16358V5.83025C8.63653 5.27797 8.18881 4.83025 7.63653 4.83025Z" fill="#FF0000"/>
</svg>
