<svg width="24" height="24" viewBox="0 0 24 24" fill="none" xmlns="http://www.w3.org/2000/svg">
<path d="M19.7 7.13001C19.4348 7.13001 19.1804 7.02465 18.9929 6.83711C18.8054 6.64958 18.7 6.39522 18.7 6.13001V4.80001C18.6561 4.0677 18.3246 3.38242 17.7776 2.89353C17.2307 2.40463 16.5126 2.15175 15.78 2.19001H8.57C7.83907 2.15447 7.1236 2.40857 6.57882 2.89719C6.03404 3.38581 5.70389 4.06952 5.66 4.80001V6.13001C5.66 6.39522 5.55465 6.64958 5.36711 6.83711C5.17957 7.02465 4.92522 7.13001 4.66 7.13001C4.39479 7.13001 4.14043 7.02465 3.9529 6.83711C3.76536 6.64958 3.66 6.39522 3.66 6.13001V4.80001C3.70179 3.53826 4.24205 2.34453 5.1624 1.48041C6.08275 0.616293 7.30813 0.152262 8.57 0.190007H15.78C17.0429 0.152223 18.2693 0.615943 19.1912 1.4798C20.1132 2.34365 20.6556 3.53737 20.7 4.80001V6.13001C20.7 6.39522 20.5946 6.64958 20.4071 6.83711C20.2196 7.02465 19.9652 7.13001 19.7 7.13001Z" fill="#1586BB"/>
<path d="M15.78 23.81H8.57C7.45496 23.8358 6.36524 23.4756 5.48514 22.7905C4.60505 22.1054 3.98858 21.1373 3.74 20.05C3.69009 19.7901 3.74521 19.5211 3.89328 19.3018C4.04136 19.0825 4.27031 18.9308 4.53 18.88C4.78843 18.8298 5.05621 18.8836 5.27525 19.0296C5.49428 19.1757 5.64691 19.4022 5.7 19.66C5.85817 20.2938 6.22997 20.8536 6.75275 21.2453C7.27553 21.6369 7.91733 21.8363 8.57 21.81H15.78C16.4376 21.8387 17.0845 21.6365 17.6087 21.2383C18.1329 20.8402 18.5012 20.2712 18.65 19.63C18.6991 19.3648 18.8515 19.1299 19.0737 18.9771C19.2959 18.8242 19.5698 18.7659 19.835 18.815C20.1002 18.8641 20.3351 19.0165 20.4879 19.2387C20.6408 19.4609 20.6991 19.7348 20.65 20C20.412 21.1044 19.7943 22.0903 18.9046 22.7864C18.0148 23.4825 16.9092 23.8447 15.78 23.81Z" fill="#1586BB"/>
<path d="M3.01114 16.0535C3.01114 16.5268 3.38434 16.8873 3.87452 16.8873C4.22545 16.8873 4.40926 16.7465 4.79918 16.1887L6.12489 14.2507H6.20844L7.60657 16.1887C8.04104 16.769 8.19701 16.8873 8.53679 16.8873C9.03254 16.8873 9.41132 16.5268 9.41132 16.0535C9.41132 15.8451 9.32776 15.6366 9.14952 15.4056L7.29463 13.0113L9.1161 10.5549C9.29991 10.3127 9.38347 10.1099 9.38347 9.91268C9.38347 9.43944 9.01026 9.07324 8.51451 9.07324C8.15245 9.07324 7.94635 9.23099 7.59543 9.77183L6.28086 11.7944H6.1973L4.80475 9.77183C4.40369 9.20845 4.22545 9.07324 3.87452 9.07324C3.37877 9.07324 3 9.4338 3 9.91268C3 10.1211 3.08355 10.3296 3.2618 10.5549L5.05541 12.9606L3.27294 15.4113C3.09469 15.6535 3.01114 15.8563 3.01114 16.0535Z" fill="#1586BB"/>
<path d="M15.4216 16.0535C15.4216 15.5972 15.0985 15.2761 14.6362 15.2761H12.2688V10.0873C12.2688 9.4507 11.9346 9.08451 11.3442 9.08451C10.7537 9.08451 10.4251 9.44507 10.4251 10.0873V15.7662C10.4251 16.4592 10.7983 16.831 11.4946 16.831H14.6362C15.0985 16.831 15.4216 16.5099 15.4216 16.0535Z" fill="#1586BB"/>
<path d="M15.8783 15.2479C15.8783 15.5634 16.0566 15.8901 16.3797 16.2C16.8977 16.6958 17.8279 17 18.8751 17C20.7801 17 22 16.0254 22 14.5099C22 13.3437 21.3149 12.6394 19.9 12.3521L18.8417 12.1211C18.1343 11.9803 17.8112 11.6817 17.8112 11.2592C17.8112 10.7746 18.2345 10.4648 18.9085 10.4648C19.4823 10.4648 19.9335 10.6901 20.3234 11.1239C20.5573 11.3493 20.7968 11.4563 21.0364 11.4563C21.4653 11.4563 21.7549 11.1746 21.7549 10.7634C21.7549 10.4197 21.5822 10.0817 21.2536 9.77746C20.7411 9.28732 19.861 9 18.8863 9C17.1038 9 15.9675 9.93521 15.9675 11.4113C15.9675 12.5887 16.6415 13.3042 18.0117 13.5972L19.0589 13.8394C19.861 14.0141 20.1953 14.2789 20.1953 14.707C20.1953 15.2366 19.7663 15.5296 18.9698 15.5296C18.4072 15.5296 17.8558 15.293 17.399 14.8592C17.0926 14.5831 16.8643 14.4817 16.5969 14.4817C16.2014 14.4817 15.8783 14.7972 15.8783 15.2479Z" fill="#1586BB"/>
</svg>
