<svg width="16" height="16" viewBox="0 0 16 16" fill="none" xmlns="http://www.w3.org/2000/svg">
  <g clip-path="url(#clip0_1087_1343)">
    <path d="M7.80576 11.9997C7.66851 12.0046 7.53183 11.9805 7.40568 11.929C7.27952 11.8776 7.16707 11.8001 7.07653 11.7022L2.19345 6.45219C2.04425 6.2766 1.97231 6.0532 1.99264 5.82856C2.01296 5.60392 2.12397 5.39539 2.30253 5.24645C2.48108 5.0975 2.7134 5.01964 2.95104 5.02909C3.18868 5.03854 3.4133 5.13459 3.57806 5.29719L7.83345 9.81219L12.4488 5.25344C12.6221 5.10577 12.8478 5.02565 13.0807 5.02915C13.3136 5.03265 13.5366 5.11951 13.7048 5.2723C13.873 5.42509 13.974 5.63252 13.9876 5.85298C14.0012 6.07343 13.9263 6.29061 13.7781 6.46094L8.5073 11.7109C8.41892 11.8038 8.31058 11.8776 8.18956 11.9274C8.06854 11.9772 7.93767 12.0019 7.80576 11.9997Z" fill="#1A1C1F"/>
  </g>
  <defs>
    <clipPath id="clip0_1087_1343">
      <rect width="12" height="7" fill="white" transform="translate(2 5)"/>
    </clipPath>
  </defs>
</svg>
