<svg width="40" height="40" viewBox="0 0 40 40" fill="none" xmlns="http://www.w3.org/2000/svg">
  <path d="M18 25H22M22 25V13H10V25H13M22 25V17H27L28.83 18.83C29.2013 19.2018 29.4958 19.643 29.6965 20.1286C29.8973 20.6142 30.0004 21.1346 30 21.66V25H28M22 25H23" stroke="#666C72" stroke-width="2" stroke-linecap="round" stroke-linejoin="round"/>
  <path d="M15.5 28C16.8807 28 18 26.8807 18 25.5C18 24.1193 16.8807 23 15.5 23C14.1193 23 13 24.1193 13 25.5C13 26.8807 14.1193 28 15.5 28Z" stroke="#666C72" stroke-width="2" stroke-linecap="round" stroke-linejoin="round"/>
  <path d="M25.5 28C26.8807 28 28 26.8807 28 25.5C28 24.1193 26.8807 23 25.5 23C24.1193 23 23 24.1193 23 25.5C23 26.8807 24.1193 28 25.5 28Z" stroke="#666C72" stroke-width="2" stroke-linecap="round" stroke-linejoin="round"/>
</svg>
