<svg width="12" height="12" viewBox="0 0 12 12" fill="none" xmlns="http://www.w3.org/2000/svg">
  <g clip-path="url(#clip0_1406_39112)">
    <path d="M5.85456 3.74999C5.75163 3.74627 5.64912 3.76437 5.5545 3.80297C5.45989 3.84157 5.37555 3.8997 5.30764 3.97311L1.64533 7.91061C1.53343 8.04231 1.47948 8.20986 1.49472 8.37834C1.50996 8.54681 1.59322 8.70321 1.72714 8.81492C1.86106 8.92663 2.0353 8.98503 2.21353 8.97794C2.39176 8.97085 2.56022 8.89882 2.68379 8.77686L5.87533 5.39061L9.33687 8.80968C9.46678 8.92043 9.63607 8.98052 9.81077 8.97789C9.98548 8.97527 10.1527 8.91013 10.2788 8.79553C10.405 8.68094 10.4807 8.52536 10.4909 8.36002C10.5011 8.19468 10.445 8.0318 10.3338 7.90405L6.38072 3.96655C6.31444 3.89691 6.23318 3.84154 6.14241 3.80419C6.05165 3.76683 5.9535 3.74835 5.85456 3.74999Z" fill="#666C72"/>
  </g>
  <defs>
    <clipPath id="clip0_1406_39112">
      <rect width="9" height="5.25" fill="white" transform="matrix(1 0 0 -1 1.5 9)"/>
    </clipPath>
  </defs>
</svg>
